# xmcd CD database file
#
# Track frame offsets:
#	150
#	14475
#	37300
#	57890
#	71522
#	84117
#	102760
#	116360
#	139207
#	155082
#	174210
#
# Disc length: 2685 seconds
#
# Revision: 0
# Processed by: cddbd v1.4PL0 Copyright (c) Steve Scherf et al.
# Submitted via: CDex 1.51
#
DISCID=8b0a7b0b
DTITLE=Bernita Bush - Because He Lives
DYEAR=1996
DGENRE=Jazz
TTITLE0=I just feel like something good is about to happen
TTITLE1=Consideration
TTITLE2=Take my hand precious lord
TTITLE3=If you see my savior
TTITLE4=I'm gonna go higher
TTITLE5=people get ready
TTITLE6=Nobody but you
TTITLE7=You've made my life worth living
TTITLE8=Jesus loves me
TTITLE9=Short of your will
TTITLE10=Because he lives
EXTD=YEAR: 1996
EXTT0=
EXTT1=
EXTT2=
EXTT3=
EXTT4=
EXTT5=
EXTT6=
EXTT7=
EXTT8=
EXTT9=
EXTT10=
PLAYORDER=
